<?xml version="1.0" encoding="utf-8"?>
<svg viewBox="418 187.3211 101.3151 292.6789" xmlns="http://www.w3.org/2000/svg">
  <path d="M4632 4510 c-34 -21 -67 -82 -58 -106 4 -12 -28 -14 -194 -14 -110 0&#10;-200 -3 -200 -7 0 -4 43 -160 96 -345 89 -311 99 -338 119 -338 18 0 21 -4 17&#10;-30 -2 -18 2 -40 12 -54 15 -24 15 -25 -7 -32 -55 -16 -75 -74 -41 -122 14&#10;-20 14 -22 -1 -22 -30 0 -72 -29 -84 -58 -27 -64 27 -132 104 -132 40 0 44 -3&#10;54 -32 45 -129 1 -552 -86 -820 -13 -43 -29 -80 -34 -83 -5 -4 -9 -57 -9 -120&#10;0 -109 -1 -114 -22 -120 -34 -11 -66 -44 -78 -81 -9 -28 -8 -41 9 -79 11 -25&#10;25 -45 30 -45 6 0 11 -3 11 -7 0 -5 -17 -8 -37 -8 l-38 0 0 -125 0 -125 493&#10;-3 493 -2 -3 127 -3 128 -32 3 -33 3 22 30 c46 61 20 147 -52 178 l-38 16 -4&#10;106 c-2 83 -7 111 -20 126 -103 113 -161 753 -82 905 12 24 21 28 55 28 103 0&#10;151 87 87 157 -11 12 -34 25 -50 28 -27 6 -28 8 -14 24 34 38 11 113 -39 125&#10;-22 6 -24 9 -14 27 6 12 9 36 7 55 -3 27 0 34 17 36 17 3 32 46 116 338 53&#10;184 95 338 92 343 -2 4 -89 7 -192 7 l-188 0 -7 38 c-12 81 -106 125 -174 82z" style="stroke: rgb(255, 255, 255); stroke-width: 50px;" transform="matrix(0.10000000149011612, 0, 0, -0.10000000149011612, 0, 640)"/>
</svg>