<?xml version="1.0" encoding="utf-8"?>
<svg viewBox="5.1334 340.1704 75.8666 139.8296" xmlns="http://www.w3.org/2000/svg">
  <path d="M395 2991 c-180 -44 -251 -275 -124 -402 11 -11 19 -21 17 -22 -78&#10;-39 -102 -73 -112 -152 -3 -31 -4 -61 -1 -66 4 -5 29 -9 57 -9 l51 0 -7 -57&#10;c-9 -84 -65 -191 -143 -274 -71 -75 -86 -117 -64 -181 10 -27 9 -35 -4 -44&#10;-13 -10 -15 -29 -13 -95 l3 -84 378 -3 377 -2 0 89 c0 54 -4 91 -11 93 -7 2&#10;-7 12 0 31 6 16 11 49 11 74 0 42 -5 50 -63 111 -108 114 -136 169 -140 280&#10;l-3 62 63 0 63 0 0 53 c-1 86 -50 167 -102 167 -24 0 -23 5 11 48 103 133 40&#10;329 -121 377 -55 16 -76 17 -123 6z" style="stroke: rgb(255, 255, 255); stroke-width: 50px;" transform="matrix(0.10000000149011612, 0, 0, -0.10000000149011612, 0, 640)"/>
</svg>