<?xml version="1.0" encoding="utf-8"?>
<svg viewBox="530.6849 159.0869 101.3151 320.9131"
  xmlns="http://www.w3.org/2000/svg">
  <path d="M5703 4803 c-9 -3 -13 -26 -13 -64 l0 -59 -60 0 -60 0 0 -94 c0 -105&#10;0 -106 76 -106 l44 0 0 -45 0 -45 -189 0 c-105 0 -192 -3 -194 -7 -3 -5 39&#10;-160 92 -345 91 -319 97 -338 119 -338 19 0 22 -4 17 -21 -8 -24 12 -79 29&#10;-79 6 0 -7 -9 -30 -19 -58 -26 -73 -77 -35 -118 20 -21 20 -21 -12 -27 -78&#10;-16 -104 -100 -48 -157 24 -23 38 -29 74 -29 38 0 46 -4 57 -27 21 -46 24&#10;-242 6 -388 -30 -235 -82 -451 -122 -513 -12 -19 -15 -46 -12 -132 l3 -108&#10;-32 -11 c-74 -27 -98 -120 -47 -180 l26 -31 -36 0 c-19 0 -38 -5 -41 -10 -3&#10;-6 -3 -64 1 -130 l7 -120 493 0 492 0 -5 118 c-2 64 -7 123 -9 131 -3 9 -15&#10;12 -34 9 -17 -3 -30 -1 -30 4 0 4 4 8 10 8 5 0 17 14 26 32 34 65 -8 158 -77&#10;173 l-29 7 0 107 c0 95 -2 110 -20 126 -91 82 -155 689 -93 875 l18 55 59 5&#10;c48 4 62 10 82 33 41 48 26 114 -31 142 -18 8 -38 15 -45 15 -7 0 -6 5 4 15&#10;38 39 24 98 -30 125 -28 14 -29 17 -17 40 7 14 10 37 7 53 -4 22 -2 27 13 27&#10;16 0 33 49 116 338 53 185 97 340 97 345 0 4 -85 7 -190 7 l-190 0 0 45 0 45&#10;49 0 c29 0 53 5 60 14 8 9 11 45 9 98 l-3 83 -57 3 -58 3 0 58 c0 44 -4 60&#10;-16 65 -19 7 -203 7 -221 -1z" style="stroke: rgb(255, 255, 255); stroke-width: 50px;" transform="matrix(0.10000000149011612, 0, 0, -0.10000000149011612, 0, 640)"/>
</svg>