<?xml version="1.0" encoding="utf-8"?>
<svg viewBox="94.9 293.2124 92.1 186.2876" xmlns="http://www.w3.org/2000/svg">
  <path d="M1071 3441 c-47 -50 -89 -151 -107 -252 l-15 -94 50 -205 c92 -377&#10;121 -557 121 -754 l0 -92 -35 -13 c-52 -19 -75 -54 -75 -116 0 -47 4 -56 30&#10;-79 l30 -25 -37 -3 -38 -3 0 -100 0 -100 420 0 420 0 0 100 0 100 -38 3 -38 3&#10;31 29 c25 24 30 35 30 77 0 61 -16 85 -80 112 -44 19 -50 25 -50 51 0 23 9 35&#10;42 57 22 15 50 39 60 53 42 57 39 197 -6 295 -14 31 -74 107 -159 200 -93 102&#10;-137 158 -137 173 0 35 28 89 63 118 33 28 27 27 189 8 41 -5 50 -3 73 20 32&#10;32 32 69 1 94 -28 21 -24 33 22 56 22 11 32 24 32 40 0 26 -31 71 -60 86 -10&#10;6 -95 21 -187 35 -243 35 -325 52 -355 75 -15 11 -31 20 -36 20 -5 0 -29 13&#10;-53 30 -55 37 -74 37 -108 1z" style="stroke: rgb(255, 255, 255); stroke-width: 50px;" transform="matrix(0.10000000149011612, 0, 0, -0.10000000149011612, 0, 640)"/>
</svg>