<?xml version="1.0" encoding="utf-8"?>
<svg viewBox="198.5 298.1745 81 181.3255" xmlns="http://www.w3.org/2000/svg">
  <path d="M2097 3413 c-4 -3 -7 -94 -7 -201 0 -183 1 -194 19 -199 19 -5 19 -5&#10;0 -36 -38 -63 -15 -155 45 -184 29 -13 33 -19 25 -34 -14 -27 -11 -70 8 -91&#10;15 -16 15 -27 4 -101 -35 -228 -83 -405 -150 -549 -36 -77 -38 -111 -11 -155&#10;l19 -32 -32 -3 -32 -3 0 -110 0 -110 405 0 405 0 0 110 c0 107 -1 110 -23 113&#10;-23 3 -23 4 -6 30 26 39 24 104 -4 139 -66 82 -192 478 -192 605 0 19 9 51 19&#10;71 15 30 17 45 10 70 -11 40 -12 37 7 37 9 0 31 15 50 34 30 30 34 40 34 88 0&#10;32 -6 62 -15 74 -20 26 -19 32 8 36 22 3 22 3 22 203 l0 200 -301 3 c-165 1&#10;-303 -1 -307 -5z" style="stroke: rgb(255, 255, 255); stroke-width: 50px;" transform="matrix(0.10000000149011612, 0, 0, -0.10000000149011612, 0, 640)"/>
</svg>