<?xml version="1.0" encoding="utf-8"?>
<svg viewBox="300.1 218.357 99 261.643" xmlns="http://www.w3.org/2000/svg">
  <path d="M3452 4211 c-85 -22 -142 -92 -149 -185 -4 -51 -1 -68 20 -106 l24&#10;-45 -33 -41 c-127 -155 -151 -445 -54 -653 35 -73 34 -71 16 -71 -20 0 -56&#10;-48 -56 -74 0 -12 7 -31 15 -43 15 -21 14 -23 -10 -29 -52 -13 -73 -86 -36&#10;-123 19 -19 19 -19 -13 -25 -122 -23 -95 -186 30 -186 42 0 46 -2 60 -35 7&#10;-19 14 -47 14 -62 0 -45 -43 -125 -99 -181 l-51 -53 0 -109 c0 -109 0 -110&#10;-25 -116 -40 -10 -75 -59 -75 -105 0 -42 23 -99 40 -99 6 0 10 -3 10 -7 0 -5&#10;-17 -8 -37 -8 -38 0 -38 0 -41 -45 -2 -25 -1 -82 3 -128 l7 -82 489 0 490 0&#10;-3 127 -3 128 -32 0 c-38 0 -40 5 -13 30 22 20 35 73 25 104 -11 36 -54 79&#10;-85 86 l-30 7 0 103 0 104 -59 58 c-65 64 -87 116 -78 187 9 65 35 90 102 97&#10;72 8 100 33 100 88 0 47 -32 87 -77 96 -28 7 -29 8 -12 26 35 39 12 110 -41&#10;123 -23 6 -23 7 -9 36 18 35 11 64 -23 96 l-24 22 20 41 c36 69 54 167 53 281&#10;0 58 -5 120 -9 138 l-8 33 -84 -96 -84 -96 -31 30 -30 30 20 23 c11 13 55 62&#10;97 109 42 48 77 93 77 100 0 8 -16 37 -35 64 -59 86 -60 89 -34 124 27 37 37&#10;122 19 175 -32 98 -148 162 -248 137z" style="stroke: rgb(255, 255, 255); stroke-width: 50px;" transform="matrix(0.10000000149011612, 0, 0, -0.10000000149011612, 0, 640)"/>
</svg>