<?xml version="1.0" encoding="utf-8"?>
<svg viewBox="999 298.1314 81 181.8686" xmlns="http://www.w3.org/2000/svg">
  <path d="M10085 3407 c-3 -7 -4 -98 -3 -202 3 -188 3 -190 26 -193 26 -4 27&#10;-6 5 -38 -23 -36 -21 -108 3 -142 11 -15 35 -34 52 -42 22 -10 30 -20 26 -30&#10;-17 -41 -16 -63 6 -92 19 -26 21 -37 15 -91 -4 -34 -13 -92 -21 -129 -26 -130&#10;-125 -402 -156 -431 -42 -40 -49 -104 -18 -154 l20 -33 -25 0 -25 0 0 -115 0&#10;-115 405 0 405 0 0 115 0 115 -36 0 -35 0 20 26 c31 40 27 98 -13 185 -54 119&#10;-94 259 -125 437 l-28 167 20 28 c18 23 20 33 11 66 -10 35 -9 39 17 53 15 9&#10;35 28 45 43 22 34 22 106 1 139 -21 32 -21 33 3 39 20 5 20 12 18 204 l-3 198&#10;-303 3 c-240 2 -304 0 -307 -11z" style="fill: rgb(255, 255, 255); stroke: rgb(0, 0, 0); stroke-width: 50px;" transform="matrix(0.10000000149011612, 0, 0, -0.10000000149011612, 0, 640)"/>
</svg>