<?xml version="1.0" encoding="utf-8"?>
<svg viewBox="1199 340.523 75.8666 139.477" xmlns="http://www.w3.org/2000/svg">
  <path d="M12287 2986 c-65 -18 -116 -61 -149 -126 -45 -86 -36 -176 24 -253&#10;17 -21 28 -39 27 -40 -2 -2 -21 -10 -41 -19 -47 -22 -69 -64 -76 -145 l-5 -63&#10;65 0 64 0 -3 -71 c-4 -99 -34 -160 -127 -258 -72 -75 -76 -82 -76 -125 0 -24&#10;5 -57 11 -73 7 -19 7 -29 0 -31 -7 -2 -11 -39 -11 -93 l0 -89 378 2 377 3 3&#10;88 c2 74 0 87 -13 87 -13 0 -14 5 -8 23 4 12 8 47 8 78 0 56 -1 57 -67 127&#10;-79 84 -135 190 -144 275 l-7 57 51 0 c60 0 65 8 52 87 -13 77 -31 101 -108&#10;140 -2 1 6 11 18 23 35 35 61 106 61 164 0 160 -149 274 -304 232z" style="fill: rgb(255, 255, 255); stroke: rgb(0, 0, 0); stroke-width: 50px;" transform="matrix(0.10000000149011612, 0, 0, -0.10000000149011612, 0, 640)"/>
</svg>