<?xml version="1.0" encoding="utf-8"?>
<svg viewBox="1094.3348 293.144 91.3242 186.356" xmlns="http://www.w3.org/2000/svg">
  <path d="M11642 3445 c-17 -14 -44 -30 -61 -36 -17 -6 -31 -15 -31 -20 0 -16&#10;-134 -44 -384 -79 -160 -23 -184 -33 -212 -88 -15 -31 -14 -35 2 -53 9 -10 23&#10;-19 29 -19 7 0 18 -7 25 -15 11 -13 8 -19 -14 -40 -30 -28 -29 -23 -15 -64 16&#10;-45 42 -52 148 -40 108 12 140 1 171 -61 36 -71 30 -87 -77 -205 -203 -222&#10;-223 -256 -231 -386 -6 -99 16 -153 79 -195 36 -24 45 -36 47 -65 3 -34 1 -36&#10;-37 -47 -89 -27 -119 -119 -61 -186 l31 -35 -38 -3 -38 -3 0 -100 0 -100 420&#10;0 420 0 0 100 0 100 -39 5 -39 5 26 14 c37 20 54 77 39 130 -13 40 -41 65 -86&#10;77 -26 6 -26 8 -26 93 0 185 34 396 121 751 54 217 56 248 27 370 -15 61 -75&#10;176 -106 200 -33 26 -54 25 -90 -5z" style="fill: rgb(255, 255, 255); stroke: rgb(0, 0, 0); stroke-width: 50px;" transform="matrix(0.10000000149011612, 0, 0, -0.10000000149011612, 0, 640)"/>
</svg>