<?xml version="1.0" encoding="utf-8"?>
<svg viewBox="883.1 219.1249 99.2 261.7006" xmlns="http://www.w3.org/2000/svg">
  <path d="M9240 4194 c-117 -50 -162 -207 -89 -307 l20 -28 -34 -47 c-19 -26&#10;-42 -61 -50 -78 l-16 -32 100 -113 100 -112 -28 -29 c-15 -15 -29 -28 -32 -28&#10;-3 0 -42 41 -85 91 -94 107 -97 106 -104 -46 -4 -113 13 -215 51 -299 l24 -52&#10;-29 -26 c-31 -28 -36 -63 -13 -94 20 -27 19 -34 -9 -34 -29 0 -66 -42 -66 -75&#10;0 -12 9 -34 21 -49 l20 -26 -29 0 c-21 0 -38 -9 -56 -31 -57 -67 -16 -149 74&#10;-149 55 0 85 -25 101 -85 19 -67 -4 -130 -73 -198 l-58 -59 0 -103 0 -103 -35&#10;-12 c-19 -6 -46 -25 -61 -43 -22 -27 -25 -38 -22 -79 4 -32 13 -57 28 -73 l23&#10;-25 -35 0 -36 0 -7 -92 c-4 -51 -5 -109 -3 -128 l3 -35 484 -3 c267 -1 488 1&#10;492 5 5 5 9 62 10 128 l2 120 -42 3 -42 3 30 35 c61 69 32 158 -63 188 -18 6&#10;-18 14 -12 112 l7 106 -54 57 c-92 96 -119 180 -82 251 14 27 21 30 61 30 37&#10;0 51 5 75 29 59 59 24 151 -57 151 l-38 0 22 20 c33 31 38 67 15 98 -11 15&#10;-31 28 -45 30 l-25 3 18 35 c14 28 15 41 7 65 -5 16 -13 29 -16 29 -4 0 -15 7&#10;-25 14 -16 13 -16 16 8 67 41 90 58 175 59 289 1 154 -36 276 -111 368 l-36&#10;44 22 38 c33 59 37 118 12 176 -12 26 -29 57 -39 68 -45 51 -161 71 -232 40z" style="fill: rgb(255, 255, 255); stroke: rgb(0, 0, 0); stroke-width: 50px;" transform="matrix(0.10000000149011612, 0, 0, -0.10000000149011612, 0, 640)"/>
</svg>