<?xml version="1.0" encoding="utf-8"?>
<svg viewBox="648.1459 159.012 101.1692 320.988" xmlns="http://www.w3.org/2000/svg">
  <path d="M6867 4803 c-4 -3 -7 -32 -7 -64 l0 -58 -57 -3 -58 -3 -3 -83 c-4&#10;-104 4 -115 70 -110 l48 3 0 -47 0 -48 -191 0 c-177 0 -191 -1 -187 -17 3 -10&#10;47 -165 99 -345 80 -281 96 -328 112 -328 15 0 17 -5 13 -27 -4 -16 0 -40 8&#10;-55 13 -24 13 -28 1 -28 -8 0 -26 -11 -41 -23 -32 -28 -37 -76 -11 -105 16&#10;-18 15 -19 -23 -31 -67 -20 -91 -95 -47 -147 18 -21 35 -27 82 -33 l60 -6 18&#10;-55 c62 -186 -2 -793 -93 -875 -18 -16 -20 -31 -20 -126 l0 -107 -29 -7 c-44&#10;-9 -82 -56 -88 -107 -4 -37 -1 -49 22 -76 l27 -32 -31 0 c-18 0 -33 -6 -36&#10;-13 -2 -6 -6 -65 -8 -129 l-5 -118 492 0 493 0 7 120 c4 66 4 124 1 130 -3 5&#10;-22 10 -41 10 l-36 0 26 31 c51 60 27 153 -47 180 l-32 11 3 104 c4 94 2 108&#10;-22 156 -66 137 -133 532 -124 741 6 146 15 163 81 170 64 6 97 39 97 96 0 44&#10;-29 77 -77 87 -32 6 -32 6 -12 27 38 42 15 110 -42 122 -18 4 -27 10 -22 14&#10;19 12 35 53 29 76 -5 19 -2 24 16 27 21 3 31 32 119 338 53 184 95 338 92 343&#10;-2 4 -89 7 -194 7 l-189 0 0 48 0 48 35 -4 c19 -2 46 -1 60 2 24 6 25 8 25&#10;101 l0 95 -60 0 -60 0 0 59 c0 44 -4 60 -16 65 -21 8 -219 8 -227 -1z" style="fill: rgb(255, 255, 255); stroke: rgb(0, 0, 0); stroke-width: 50px;" transform="matrix(0.10000000149011612, 0, 0, -0.10000000149011612, 0, 640)"/>
</svg>