<?xml version="1.0" encoding="utf-8"?>
<svg viewBox="760.7845 187.1073 101.2155 292.8927" xmlns="http://www.w3.org/2000/svg">
  <path d="M8054 4514 c-35 -17 -64 -61 -64 -98 l0 -26 -188 0 c-104 0 -191 -2&#10;-194 -5 -3 -3 38 -157 91 -343 83 -290 99 -337 117 -340 16 -2 19 -9 16 -41&#10;-3 -25 2 -43 12 -54 14 -14 13 -16 -14 -22 -54 -12 -80 -86 -45 -126 15 -15&#10;14 -17 -12 -24 -60 -14 -91 -66 -72 -122 13 -40 52 -63 107 -63 22 0 45 -6 51&#10;-14 39 -47 53 -324 27 -536 -27 -212 -60 -334 -104 -383 -13 -15 -18 -43 -20&#10;-126 l-4 -106 -38 -16 c-72 -31 -98 -117 -52 -178 l22 -30 -33 -3 -32 -3 -3&#10;-128 -3 -127 493 2 493 3 0 125 0 125 -40 6 c-22 3 -34 7 -27 8 7 0 22 21 33&#10;46 17 38 18 51 9 79 -12 37 -44 70 -77 81 -22 6 -23 11 -23 120 0 63 -4 116&#10;-9 120 -5 3 -21 40 -34 83 -87 268 -131 691 -86 820 10 29 14 32 54 32 77 0&#10;131 68 104 132 -13 31 -54 58 -89 58 l-20 0 20 20 c40 40 20 107 -37 124 -22&#10;7 -22 8 -7 32 10 14 14 36 12 54 -4 26 -1 30 17 30 20 0 30 27 119 338 53 185&#10;96 341 96 345 0 4 -90 7 -200 7 -166 0 -198 2 -194 14 9 24 -24 85 -58 106&#10;-39 24 -72 25 -114 4z" style="fill: rgb(255, 255, 255); stroke: rgb(0, 0, 0); stroke-width: 50px;" transform="matrix(0.10000000149011612, 0, 0, -0.10000000149011612, 0, 640)"/>
</svg>