<svg xmlns="http://www.w3.org/2000/svg" viewBox="0 0 500 500">
  <defs>
    <radialGradient gradientUnits="userSpaceOnUse" cx="251.314" cy="251.785" r="225.756" id="gradient-0" gradientTransform="matrix(1.025294, 0.000291, -0.000284, 1, -6.280641, -0.073039)">
      <stop offset="0" style="stop-color: rgb(188, 246, 4);"></stop>
      <stop offset="1" style="stop-color: rgb(170, 192, 30);"></stop>
    </radialGradient>
    <radialGradient gradientUnits="userSpaceOnUse" cx="283.802" cy="188.086" r="14.891" id="gradient-1">
      <stop offset="0" style="stop-color: #bada55"></stop>
      <stop offset="1" style="stop-color: #758d29"></stop>
    </radialGradient>
  </defs>
  <circle cx="283.802" cy="188.086" r="14.891" stroke-linecap="round" stroke-miterlimit="15.118" style="stroke: rgb(1, 0, 0); fill: url(#gradient-1);" transform="matrix(10.500238, 0, 0, 10.223461, -2728.864014, -1671.451904)"></circle>
  <path stroke-linecap="round" stroke-linejoin="round" d="M 251.622 12.966 L 271.633 71.392 L 230.617 71.392 L 251.622 12.966 Z M 251.126 71.392 L 251.126 110.548 M 410.76 96.01 L 396.384 138.244 L 367.382 110.007 L 410.76 96.01 Z M 381.884 124.125 L 353.45 151.81 M 492.779 250.745 L 436.045 271.404 L 436.045 231.471 L 492.779 250.745 Z M 436.045 251.438 L 395.829 251.438 M 410.76 406.866 L 367.382 392.869 L 396.384 364.631 L 410.76 406.866 Z M 381.884 378.751 L 353.45 351.064 M 251.804 488.019 L 230.617 431.484 L 271.633 431.484 L 251.804 488.019 Z M 251.126 431.484 L 251.126 392.328 M 91.489 406.866 L 105.864 364.631 L 134.865 392.869 L 91.489 406.866 Z M 120.367 378.751 L 148.799 351.064 M 8.761 252.856 L 66.205 231.471 L 66.205 271.404 L 8.761 252.856 Z M 66.205 251.438 L 106.422 251.438 M 91.489 96.01 L 134.865 110.007 L 105.864 138.244 L 91.489 96.01 Z M 120.367 124.125 L 148.799 151.81 M 226.115 211.75 C 226.115 199.841 231.889 190.19 239.029 190.19 L 263.462 190.19 C 270.601 190.19 276.387 199.841 276.387 211.761 C 276.387 223.66 270.601 233.312 263.472 233.312 L 239.029 233.312 C 231.889 233.312 226.115 223.66 226.115 211.75 M 242.346 233.312 L 260.144 233.312 L 260.144 252.061 L 242.346 252.061 L 242.346 233.312 Z M 289.672 358.784 L 212.799 358.784 C 206.972 359.337 202.047 354.635 202.518 348.96 C 202.392 333.225 213.523 319.518 229.273 316.009 L 239.963 312.851 L 239.963 252.061 L 262.538 252.061 L 262.538 312.851 L 273.206 316.02 C 289.334 319.629 300.507 333.962 299.731 350.065 C 299.446 356.034 296.151 358.354 289.672 358.784 M 251.251 144.092 L 251.251 190.19 M 229.925 166.245 L 272.577 166.245 M 226.101 252.061 L 276.387 252.061" style="stroke: rgb(1, 0, 0); stroke-width: 8px; fill: url(#gradient-0); paint-order: fill;"></path>
</svg>