<?xml version="1.0" standalone="no"?>
<!DOCTYPE svg PUBLIC "-//W3C//DTD SVG 20010904//EN"
 "http://www.w3.org/TR/2001/REC-SVG-20010904/DTD/svg10.dtd">
<svg version="1.0" xmlns="http://www.w3.org/2000/svg"
 width="944.000000pt" height="1280.000000pt" viewBox="0 0 944.000000 1280.000000"
 preserveAspectRatio="xMidYMid meet"><path d="M2796 12343 c12 -38 21 -69 19 -71 -1 -1 -31 7 -66 18 -35 11 -67 20
 -71 20 -5 0 -8 -45 -8 -100 0 -55 1 -100 3 -100 1 0 26 7 55 14 86 23 91 16
 71 -100 -11 -61 -12 -64 -55 -84 -65 -32 -140 -120 -160 -187 -21 -72 -15
 -173 14 -229 l21 -41 -81 53 c-151 100 -320 155 -478 155 -113 1 -170 -12
 -270 -59 -157 -73 -285 -248 -312 -425 -28 -187 44 -429 195 -656 l56 -82 -24
 -36 c-46 -67 -47 -183 -3 -250 16 -24 27 -59 31 -96 3 -34 16 -75 30 -100 17
 -29 26 -63 29 -109 11 -131 59 -181 218 -227 277 -79 486 -105 865 -105 349
 -1 587 25 810 88 28 8 76 22 108 31 109 31 166 108 167 222 0 34 5 65 11 69
 21 13 49 90 49 137 0 36 6 57 24 80 30 40 49 116 40 165 -4 21 -18 58 -32 84
 l-25 47 52 75 c173 250 246 563 177 758 -84 237 -297 389 -545 390 -166 0
 -357 -62 -509 -165 -30 -20 -51 -31 -48 -24 44 106 45 209 3 293 -30 59 -112
 138 -161 154 -32 10 -33 13 -44 88 -15 95 -15 112 -1 112 5 0 7 -5 3 -12 -4
 -7 -3 -8 4 -4 6 4 35 0 64 -9 28 -8 53 -15 55 -15 2 0 3 45 3 100 0 55 -4 100
 -9 100 -5 0 -26 -6 -47 -13 -22 -8 -51 -17 -65 -20 l-27 -7 19 61 c10 33 19
 65 19 70 0 5 -44 9 -98 9 l-98 0 22 -67z m144 -618 c37 -33 30 -123 -10 -145
 -31 -17 -86 -11 -114 11 -44 34 -33 128 17 149 29 13 85 5 107 -15z m-770
 -286 c69 -15 199 -82 283 -145 89 -66 226 -222 266 -302 33 -66 57 -137 69
 -204 l9 -46 -58 -7 c-32 -4 -63 -4 -70 0 -6 4 -22 31 -34 59 -64 144 -259 368
 -372 429 -129 69 -262 33 -326 -87 -19 -36 -22 -56 -21 -166 1 -121 3 -139 50
 -297 5 -19 0 -23 -47 -37 -61 -18 -52 -25 -109 84 -58 114 -81 193 -87 301 -7
 119 6 179 57 259 82 126 244 193 390 159z m1643 -27 c91 -45 141 -93 179 -170
 28 -57 34 -79 37 -156 5 -139 -26 -258 -106 -403 l-34 -61 -50 13 c-28 8 -53
 15 -54 17 -2 2 8 46 22 98 21 77 26 119 27 220 1 141 -11 179 -78 237 -69 62
 -172 68 -264 18 -119 -65 -288 -255 -366 -413 l-41 -84 -35 6 c-19 3 -49 6
 -66 6 l-31 0 8 48 c23 119 68 218 146 314 114 143 203 217 341 287 139 70 254
 77 365 23z m-951 -60 c43 -2 92 1 109 7 18 6 34 9 36 7 3 -2 -11 -24 -29 -48
 -18 -23 -47 -64 -63 -90 -17 -27 -32 -48 -35 -48 -3 0 -21 23 -40 52 -19 29
 -54 75 -77 104 l-41 52 31 -16 c18 -10 65 -18 109 -20z m-626 -334 c4 -5 -2
 -27 -11 -48 -10 -22 -15 -46 -12 -54 9 -22 44 -20 57 3 14 27 39 51 53 51 7 0
 6 -5 -3 -11 -12 -9 -10 -10 8 -6 20 5 26 -1 38 -30 8 -19 14 -51 12 -71 -2
 -30 -7 -38 -26 -40 -13 -2 -34 4 -47 12 -28 19 -51 20 -60 5 -13 -20 5 -59 50
 -109 28 -31 45 -60 45 -75 0 -30 -14 -29 225 -10 265 21 396 20 758 -11 l77
 -7 0 26 c0 17 16 45 45 77 74 84 73 140 -3 106 -62 -28 -77 -20 -77 42 1 44 5
 57 29 80 l27 27 33 -39 c22 -25 39 -37 52 -34 22 4 23 27 3 75 -16 40 -7 53
 48 60 32 4 44 0 71 -22 18 -15 32 -32 32 -38 0 -7 -17 -26 -37 -43 -25 -21
 -34 -36 -30 -47 7 -18 52 -23 62 -7 3 6 19 10 35 10 23 0 31 -5 36 -25 10 -38
 -4 -89 -30 -114 -28 -27 -49 -20 -75 25 -40 68 -80 23 -61 -70 5 -28 11 -64
 13 -81 2 -30 2 -30 116 -53 63 -12 125 -29 137 -37 30 -19 36 -51 14 -77 l-17
 -22 -139 27 c-246 48 -369 59 -706 64 -408 7 -612 -8 -926 -69 -127 -24 -145
 -21 -150 30 -4 42 21 57 138 82 134 28 139 30 133 47 -3 8 0 45 7 82 20 105
 -16 148 -62 76 -13 -19 -29 -37 -37 -40 -34 -13 -78 70 -66 125 9 40 17 43 64
 24 73 -29 97 5 36 52 -40 30 -43 44 -15 69 33 30 120 38 136 13z m734 -759
 c49 -23 90 -45 90 -49 0 -5 -41 -28 -92 -53 l-91 -45 -94 46 c-51 26 -93 49
 -93 53 0 4 173 87 187 89 1 0 43 -19 93 -41z m-533 -25 c7 -10 13 -37 13 -61
 0 -57 -25 -83 -80 -83 -55 0 -80 26 -80 84 0 37 5 48 28 66 32 26 98 22 119
 -6z m1010 3 c8 -8 17 -33 20 -55 5 -34 1 -44 -20 -66 -28 -28 -73 -34 -110
 -15 -31 17 -37 28 -37 72 0 57 38 91 92 84 22 -3 47 -12 55 -20z m-1331 -80
 c2 -1 -32 -33 -74 -70 -74 -66 -79 -68 -121 -64 -55 6 -76 27 -76 77 0 45 36
 93 63 83 9 -4 13 -2 9 4 -5 9 190 -20 199 -30z m1786 -12 c11 -15 10 -61 -3
 -89 -11 -23 -44 -36 -93 -36 -12 0 -52 30 -96 71 -41 39 -69 68 -62 64 6 -3
 12 -2 12 3 0 12 152 34 175 26 14 -6 16 -4 10 7 -8 14 43 -27 57 -46z m-564
 -230 c141 -15 369 -54 446 -76 l38 -11 -53 -39 c-45 -32 -60 -38 -87 -34 -315
 54 -542 69 -916 62 -289 -6 -441 -18 -636 -52 l-84 -15 -60 39 -59 39 39 10
 c143 37 405 77 604 91 170 13 593 5 768 -14z"/></svg>