<?xml version="1.0" encoding="utf-8"?>
<svg viewBox="534 924.1287 285.7265 289.7939" xmlns="http://www.w3.org/2000/svg">
  <path d="M6269 3551 c-25 -5 -75 -21 -111 -35 l-65 -26 -54 25 c-136 63 -301&#10;6 -371 -130 -29 -55 -36 -167 -14 -220 42 -101 122 -169 216 -184 67 -11 123&#10;1 215 44 73 34 106 45 75 25 -13 -9 -13 -10 0 -10 13 0 97 -148 88 -155 -2 -1&#10;-25 -17 -53 -35 -57 -39 -165 -138 -165 -153 0 -5 61 -83 136 -172 l137 -163&#10;56 20 c44 16 74 19 136 16 98 -6 161 -35 224 -103 64 -69 85 -124 86 -220 0&#10;-71 -4 -88 -33 -147 -72 -147 -244 -222 -394 -171 l-57 20 -43 -51 c-24 -28&#10;-79 -93 -122 -144 l-79 -92 28 -23 c15 -12 69 -47 119 -78 108 -67 147 -114&#10;154 -188 10 -103 -58 -180 -219 -246 -149 -62 -262 -137 -349 -231 l-45 -49&#10;40 -7 c63 -11 371 -9 470 3 119 15 291 59 402 103 l89 36 70 -30 c134 -56 285&#10;-63 462 -20 45 11 103 31 129 44 l47 24 -65 65 c-53 53 -85 75 -182 121 -155&#10;74 -209 123 -228 206 -19 82 24 147 154 234 95 63 199 165 258 251 38 56 61&#10;86 45 58 -4 -8 -1 -13 9 -13 9 0 13 5 10 10 -4 6 10 3 30 -7 20 -10 34 -22 31&#10;-30 -3 -7 -8 -45 -12 -85 -12 -142 35 -285 124 -376 64 -65 110 -85 205 -90&#10;68 -4 84 -1 131 22 94 46 176 159 206 284 32 138 -44 256 -183 283 -47 10 -57&#10;15 -52 28 61 158 78 253 81 451 1 96 6 207 9 245 14 133 -42 275 -144 367 -34&#10;30 -61 62 -61 70 0 8 -16 47 -35 86 -56 111 -165 203 -276 233 -33 8 -51 21&#10;-74 53 -39 52 -134 116 -210 141 -35 11 -94 20 -140 21 -74 2 -84 5 -132 37&#10;-96 65 -255 84 -376 47 -60 -18 -68 -19 -107 -5 -54 19 -161 26 -221 16z m466&#10;-171 c40 -56 103 -90 185 -97 l62 -6 -32 -13 c-64 -27 -223 -8 -279 33 -33 26&#10;-48 75 -32 109 18 40 57 29 96 -26z m-474 11 c34 -47 92 -73 178 -80 l76 -7&#10;-34 -21 c-46 -29 -127 -38 -193 -23 -91 22 -146 100 -102 144 23 24 51 19 75&#10;-13z m-403 -40 c1 -50 33 -113 71 -140 25 -18 104 -41 148 -44 34 -2 -51 -57&#10;-109 -71 -98 -23 -215 143 -167 237 14 28 40 57 49 57 4 0 8 -18 8 -39z m1356&#10;-53 c8 -13 18 -35 21 -50 4 -15 23 -43 42 -63 35 -36 139 -95 170 -96 13 0 11&#10;-3 -7 -10 -51 -21 -185 10 -247 57 -56 43 -79 115 -53 165 15 26 56 24 74 -3z&#10;m-418 -159 c418 -58 771 -349 864 -713 23 -90 27 -263 9 -362 -13 -71 -67&#10;-214 -80 -214 -9 0 -68 27 -77 35 -2 2 9 51 23 111 24 96 27 120 23 238 -4&#10;114 -8 142 -35 218 -92 263 -279 441 -550 525 -81 25 -102 27 -258 27 -172 0&#10;-208 -6 -350 -60 -10 -4 -75 129 -75 154 0 8 107 34 190 46 57 8 244 5 316 -5z&#10;m854 -110 c8 -13 8 -34 2 -63 -16 -75 21 -166 98 -243 38 -39 34 -41 -22 -12&#10;-56 28 -145 115 -171 164 -29 57 -28 117 2 149 30 32 76 35 91 5z m251 -469&#10;c25 -14 24 -54 -3 -90 -35 -47 -36 -230 -2 -350 l7 -25 -22 20 c-53 47 -101&#10;191 -101 304 0 84 13 119 50 138 31 16 46 16 71 3z m-97 -742 c7 -21 3 -48&#10;-20 -120 -20 -66 -29 -114 -29 -165 0 -63 3 -76 30 -114 38 -54 86 -87 139&#10;-96 l41 -6 -30 -13 c-40 -17 -108 -17 -148 0 -89 37 -154 177 -145 309 6 76&#10;36 169 68 210 28 35 81 32 94 -5z m229 -219 c31 -14 47 -49 47 -102 -1 -64&#10;-36 -97 -105 -97 -69 0 -104 33 -105 98 0 50 22 98 47 105 34 9 92 7 116 -4z" transform="matrix(0.10000000149011612, 0, 0, -0.10000000149011612, 0, 1280)"/>
  <path d="M5634 2403 c-136 -159 -257 -299 -270 -314 l-24 -25 57 -70 c60 -72&#10;443 -516 473 -547 16 -18 25 -9 201 194 101 116 194 224 206 238 20 24 22 25&#10;40 9 68 -62 180 -74 264 -30 152 79 180 270 58 390 -50 49 -95 67 -169 66 -68&#10;0 -105 -14 -157 -58 l-28 -24 -195 229 c-107 126 -198 229 -202 229 -4 0 -118&#10;-129 -254 -287z m236 -148 c11 -10 20 -22 20 -26 0 -5 -30 -42 -66 -84 l-66&#10;-76 49 -55 c95 -109 90 -98 57 -138 -16 -19 -32 -35 -35 -35 -8 -1 -199 218&#10;-199 228 0 5 40 54 89 108 95 105 112 114 151 78z m687 -81 c27 -17 47 -85 38&#10;-131 -3 -18 -17 -45 -30 -60 -21 -25 -30 -28 -89 -28 -58 0 -69 3 -92 27 -58&#10;57 -36 180 36 205 40 14 104 8 137 -13z" transform="matrix(0.10000000149011612, 0, 0, -0.10000000149011612, 0, 1280)"/>
</svg>