<?xml version="1.0" encoding="utf-8"?>
<svg viewBox="136.0262 498.7 304.6048 272.1537" xmlns="http://www.w3.org/2000/svg">
  <path d="M2720 7768 c-51 -41 -114 -112 -151 -167 l-15 -24 -54 42 c-53 42&#10;-139 91 -160 91 -29 0 -80 -189 -80 -294 l0 -52 -67 -44 c-113 -74 -191 -161&#10;-258 -289 -70 -136 -120 -193 -235 -272 -104 -71 -286 -255 -318 -320 -31 -64&#10;-29 -129 7 -204 34 -74 113 -148 183 -172 38 -14 53 -25 62 -48 17 -39 65 -80&#10;112 -95 78 -26 226 13 319 84 17 13 65 38 107 55 76 32 196 109 232 150 17 18&#10;30 21 100 21 99 0 178 19 271 64 38 19 72 33 74 30 11 -11 12 -205 1 -257 -15&#10;-76 -73 -189 -113 -222 -18 -14 -72 -54 -122 -88 -109 -75 -298 -261 -384&#10;-377 -73 -99 -176 -268 -168 -276 3 -3 65 -8 139 -11 240 -10 501 29 749 111&#10;233 77 415 102 674 93 239 -9 418 -42 638 -119 65 -22 120 -39 122 -36 10 9&#10;26 387 20 458 -14 157 -54 297 -110 382 -21 32 -23 41 -13 68 18 54 4 203 -30&#10;300 -37 106 -92 217 -147 295 -29 42 -44 75 -48 107 -16 118 -174 332 -324&#10;440 -28 21 -51 50 -72 93 -49 99 -205 228 -321 266 -19 6 -62 22 -95 34 -66&#10;26 -192 45 -297 45 l-67 0 -31 63 c-16 34 -41 75 -53 91 l-23 29 -54 -45z&#10;m462 -269 c110 -32 109 -73 -2 -98 -75 -17 -142 -13 -206 13 -57 23 -59 25&#10;-62 64 -3 39 -2 41 30 45 60 7 172 -4 240 -24z m340 -198 c64 -57 63 -85 -2&#10;-89 -24 -2 -64 2 -89 8 -63 16 -201 71 -201 80 0 4 12 11 26 14 14 4 44 19 67&#10;34 23 14 45 26 49 27 3 0 10 3 14 7 10 11 80 -30 136 -81z m-943 -8 c1 4 22&#10;-4 47 -19 38 -22 53 -26 93 -21 62 7 78 -3 49 -30 -85 -77 -193 -46 -204 57&#10;-3 33 -2 40 5 25 5 -11 10 -16 10 -12z m226 -23 c-3 -5 -12 -10 -18 -10 -7 0&#10;-6 4 3 10 19 12 23 12 15 0z m-438 -152 c26 -21 15 -45 -25 -51 -37 -6 -37 -8&#10;-34 -44 3 -28 -2 -44 -18 -60 -28 -31 -85 -31 -117 -1 l-24 22 -23 -29 c-20&#10;-25 -26 -28 -40 -16 -40 33 -6 105 67 143 100 51 180 65 214 36z m1350 -63&#10;c130 -119 256 -297 240 -339 -14 -35 -87 -7 -187 69 -69 53 -121 105 -231 225&#10;l-86 95 36 -3 c20 -1 56 1 81 7 25 5 52 9 60 10 9 1 48 -28 87 -64z m-646&#10;-321 c33 -40 -3 -165 -76 -264 -37 -51 -81 -76 -114 -65 -29 9 -37 50 -17 78&#10;52 70 86 129 105 182 12 33 27 65 33 72 15 18 53 16 69 -3z m812 -130 c26 -9&#10;65 -14 87 -12 l39 3 45 -85 c148 -281 181 -535 54 -407 -57 56 -109 144 -178&#10;301 -37 83 -74 166 -84 184 -9 17 -15 32 -13 32 2 0 25 -7 50 -16z m-2185&#10;-177 c19 -15 14 -54 -10 -71 -12 -9 -41 -16 -63 -16 -65 0 -102 38 -76 78 18&#10;28 117 34 149 9z m322 -111 c32 -39 -15 -90 -165 -175 -98 -57 -131 -68 -153&#10;-55 -26 17 -27 53 -1 80 12 13 27 24 33 24 6 0 60 32 120 70 111 71 144 82&#10;166 56z m2064 -338 c-4 -6 -3 -8 3 -5 5 3 32 -2 59 -12 42 -15 53 -25 74 -67&#10;22 -43 25 -61 24 -144 -2 -145 -44 -247 -88 -211 -25 21 -43 100 -66 279 -23&#10;190 -23 185 -10 177 6 -4 7 -11 4 -17z m199 -646 l-8 -29 -87 26 c-76 22 -88&#10;29 -88 48 0 29 13 36 73 37 43 2 54 7 81 37 l31 34 3 -62 c2 -34 -1 -75 -5&#10;-91z" transform="matrix(0.10000000149011612, 0, 0, -0.10000000149011612, 0, 1280)"/>
</svg>