<?xml version="1.0" encoding="utf-8"?>
<svg viewBox="603 510.3211 129 258.6789" xmlns="http://www.w3.org/2000/svg">
  <path d="M6610 7691 c-70 -23 -132 -75 -164 -138 -36 -72 -29 -182 16 -245 13&#10;-19 18 -37 14 -52 -11 -43 -92 -120 -186 -176 -51 -30 -124 -85 -161 -121&#10;l-69 -66 0 -60 c0 -46 4 -62 16 -67 9 -3 99 -6 201 -6 l186 0 -7 -57 c-10 -93&#10;-62 -185 -152 -273 -144 -139 -188 -238 -189 -420 0 -134 21 -209 84 -307 41&#10;-63 147 -167 182 -178 18 -6 10 -13 -52 -47 -103 -56 -158 -98 -234 -180 -65&#10;-70 -65 -71 -65 -129 l0 -59 645 0 645 0 0 59 0 59 -71 76 c-70 75 -162 144&#10;-251 187 l-47 22 45 30 c139 92 244 290 244 462 0 162 -52 278 -186 417 -106&#10;108 -149 184 -160 281 l-7 57 184 0 c101 0 194 3 207 7 22 5 23 9 17 67 -6 59&#10;-8 63 -69 122 -35 34 -109 89 -164 123 -99 61 -162 118 -184 167 -9 20 -7 32&#10;18 76 25 45 29 64 28 123 -1 102 -49 181 -138 227 -43 22 -136 32 -176 19z" transform="matrix(0.10000000149011612, 0, 0, -0.10000000149011612, 0, 1280)"/>
</svg>