<?xml version="1.0" encoding="utf-8"?>
<svg viewBox="555.0201 55.2115 316.0084 269.4385" xmlns="http://www.w3.org/2000/svg">
  <path d="M7064 12239 c-18 -5 -50 -27 -73 -50 -63 -63 -78 -147 -40 -226 26&#10;-54 69 -90 125 -105 40 -11 43 -14 37 -37 -10 -42 -314 -875 -321 -883 -6 -5&#10;-254 515 -319 667 -9 22 -18 33 -19 25 -2 -8 -26 -181 -54 -385 -28 -203 -53&#10;-371 -55 -373 -3 -3 -433 491 -482 555 l-24 31 44 45 c94 93 79 238 -31 308&#10;-44 28 -53 30 -124 27 -90 -4 -121 -21 -155 -88 -45 -87 -21 -210 51 -265 44&#10;-34 124 -51 165 -37 27 10 33 9 39 -6 3 -9 56 -242 118 -517 80 -363 109 -506&#10;103 -523 -5 -13 -9 -54 -9 -91 0 -53 5 -78 25 -115 14 -26 25 -61 25 -79 0&#10;-44 19 -107 41 -139 14 -19 19 -43 19 -87 0 -120 50 -186 169 -226 104 -34&#10;264 -71 401 -92 165 -26 655 -26 820 0 137 21 297 58 401 92 118 40 169 106&#10;169 223 0 45 6 71 25 104 13 24 27 70 31 103 4 33 18 81 31 106 26 53 31 130&#10;12 201 -12 44 8 137 193 921 l30 129 44 -7 c23 -3 61 -1 84 5 49 13 118 72&#10;137 117 30 73 8 166 -54 225 -78 74 -221 62 -286 -24 -64 -84 -56 -188 19&#10;-266 l44 -46 -42 -50 c-147 -175 -462 -536 -465 -532 -4 4 -98 662 -105 737&#10;l-3 34 -28 -60 c-15 -33 -89 -194 -165 -357 -75 -164 -139 -297 -142 -298 -4&#10;0 -311 845 -325 896 -5 18 0 22 27 28 55 11 103 50 132 107 39 80 31 150 -27&#10;216 -55 63 -133 85 -213 62z m94 -1136 c91 -245 142 -385 142 -389 0 -2 -76&#10;-4 -170 -4 -93 0 -170 2 -170 5 0 4 90 253 130 358 24 65 51 76 68 30z m-596&#10;-171 c-3 -10 -1 -13 6 -8 7 4 33 -40 71 -116 l60 -123 -27 -7 c-15 -4 -60 -11&#10;-100 -14 l-73 -7 5 24 c3 13 15 84 27 157 12 73 25 128 30 121 4 -7 5 -19 1&#10;-27z m1147 21 c1 -10 12 -81 26 -157 13 -77 23 -141 22 -142 -4 -3 -188 24&#10;-193 29 -9 8 118 247 128 241 5 -3 9 0 7 7 -2 20 0 39 5 39 3 0 5 -8 5 -17z&#10;m-1553 -125 c10 -12 13 -18 7 -14 -7 4 -13 2 -13 -3 0 -6 7 -11 14 -11 8 0 47&#10;-37 86 -82 l72 -83 -29 -12 c-16 -6 -45 -14 -65 -18 -30 -6 -37 -4 -42 12 -8&#10;25 -53 233 -51 233 1 0 10 -10 21 -22z m1949 -80 c-9 -45 -21 -99 -26 -120&#10;l-9 -36 -61 18 c-34 11 -63 21 -65 23 -2 2 35 49 83 105 48 56 89 99 91 97 2&#10;-2 -4 -41 -13 -87z m-545 -193 c228 -24 487 -80 522 -112 35 -32 15 -73 -35&#10;-73 -16 0 -63 9 -106 20 -213 54 -470 80 -806 80 -324 0 -563 -23 -783 -75&#10;-133 -32 -170 -32 -181 -2 -13 32 9 59 60 75 149 45 444 91 684 106 114 7 511&#10;-4 645 -19z m-340 -276 c50 -28 90 -53 90 -55 0 -8 -166 -104 -180 -104 -20 0&#10;-183 100 -176 107 5 5 168 101 174 102 1 1 43 -22 92 -50z m-478 -19 c27 -8&#10;39 -18 47 -41 20 -58 -24 -95 -127 -105 -52 -6 -62 -4 -81 15 -13 13 -21 34&#10;-21 56 0 41 25 61 91 74 24 5 46 9 49 10 3 0 21 -4 42 -9z m916 -16 c56 -23&#10;63 -97 11 -125 -30 -16 -121 -5 -162 18 -56 33 -45 114 17 126 30 6 96 -3 134&#10;-19z m-1317 -89 c41 -15 77 -31 82 -34 4 -4 -25 -33 -63 -65 -69 -56 -71 -57&#10;-105 -46 -19 6 -40 21 -46 32 -14 27 -15 98 -1 125 15 27 35 25 133 -12z&#10;m1688 23 c11 -11 13 -10 7 2 -4 8 0 6 8 -4 18 -22 22 -107 6 -136 -5 -10 -26&#10;-24 -45 -30 -35 -12 -37 -11 -101 44 -35 30 -66 59 -67 63 -2 6 150 69 174 72&#10;3 1 11 -5 18 -11z m-484 -216 c120 -19 329 -61 400 -80 l29 -8 -39 -16 c-101&#10;-39 -132 -42 -275 -19 -415 64 -645 65 -1030 5 -177 -28 -214 -26 -305 14&#10;l-39 18 149 33 c138 30 347 64 455 74 25 3 153 3 285 2 179 -2 273 -8 370 -23z" transform="matrix(0.10000000149011612, 0, 0, -0.10000000149011612, 0, 1280)"/>
</svg>