<?xml version="1.0" encoding="utf-8"?>
<svg viewBox="197.5 943 180.7 271" xmlns="http://www.w3.org/2000/svg">
  <path d="M2060 3143 l0 -228 58 -36 c31 -20 94 -58 139 -85 l82 -48 -5 -76&#10;c-3 -41 -7 -87 -9 -102 -4 -25 -1 -27 40 -33 24 -4 62 -4 84 0 l41 7 0 99 0&#10;99 50 0 50 0 0 -99 0 -98 31 -7 c40 -8 487 -8 517 0 21 6 22 11 22 105 l0 99&#10;49 0 48 0 7 -46 c3 -26 6 -70 6 -99 0 -60 7 -65 90 -65 71 0 73 3 65 117 l-7&#10;100 108 63 c60 34 124 74 142 87 l32 24 0 193 c0 107 -3 208 -6 225 l-7 31&#10;-166 -2 -166 -3 -3 -82 -3 -83 -133 0 -134 0 -7 85 -7 85 -194 0 -194 0 0 -85&#10;0 -85 -140 0 -140 0 0 85 0 85 -170 0 -170 0 0 -227z m1409 -228 l-84 -55&#10;-508 0 -508 0 -80 51 c-43 28 -79 53 -79 55 0 2 302 4 671 4 l672 0 -84 -55z" transform="matrix(0.10000000149011612, 0, 0, -0.10000000149011612, 0, 1280)"/>
  <path d="M2315 2418 c-4 -11 -25 -178 -25 -200 0 -5 119 -8 265 -8 l265 0 0&#10;110 0 110 -250 0 c-191 0 -252 -3 -255 -12z" transform="matrix(0.10000000149011612, 0, 0, -0.10000000149011612, 0, 1280)"/>
  <path d="M2937 2423 c-4 -3 -7 -53 -7 -110 l0 -103 266 0 267 0 -7 102 c-4 56&#10;-9 105 -12 110 -6 10 -498 11 -507 1z" transform="matrix(0.10000000149011612, 0, 0, -0.10000000149011612, 0, 1280)"/>
  <path d="M2276 2043 c-4 -32 -9 -79 -12 -105 l-6 -48 116 0 116 0 0 105 0 105&#10;-104 0 -104 0 -6 -57z" transform="matrix(0.10000000149011612, 0, 0, -0.10000000149011612, 0, 1280)"/>
  <path d="M2590 1995 l0 -105 285 0 285 0 0 105 0 105 -285 0 -285 0 0 -105z" transform="matrix(0.10000000149011612, 0, 0, -0.10000000149011612, 0, 1280)"/>
  <path d="M3270 1995 l0 -105 110 0 110 0 0 28 c0 16 -3 63 -6 105 l-7 77 -103&#10;0 -104 0 0 -105z" transform="matrix(0.10000000149011612, 0, 0, -0.10000000149011612, 0, 1280)"/>
  <path d="M2246 1738 c-3 -24 -8 -71 -12 -105 l-6 -61 -44 -11 c-57 -15 -118&#10;-70 -140 -127 -21 -55 -13 -124 20 -174 l23 -36 -29 -34 c-17 -19 -42 -60 -57&#10;-90 -25 -53 -26 -60 -26 -245 l0 -190 903 -3 904 -2 -4 197 c-3 222 -11 252&#10;-82 331 -22 24 -33 43 -26 47 23 14 50 86 50 131 0 95 -73 182 -166 200 l-32&#10;6 -7 104 -7 104 -289 0 -289 0 0 -105 0 -105 -55 0 -55 0 0 105 0 105 -284 0&#10;-284 0 -6 -42z m1332 -314 c16 -11 22 -25 22 -54 0 -45 -18 -67 -63 -75 -18&#10;-3 -327 -5 -688 -3 -630 3 -658 4 -678 22 -27 25 -28 79 -1 106 20 20 33 20&#10;703 20 602 0 685 -2 705 -16z m-8 -290 c36 -21 80 -76 80 -100 0 -12 -131 -14&#10;-776 -14 l-775 0 7 23 c17 56 58 93 119 108 17 4 318 7 670 6 626 -2 641 -2&#10;675 -23z" transform="matrix(0.10000000149011612, 0, 0, -0.10000000149011612, 0, 1280)"/>
</svg>